<svg class="w-6 h-6" width="24" height="24" viewBox="0 0 24 24" fill="none" xmlns="http://www.w3.org/2000/svg"><path d="M15 11C15.5523 11 16 11.4477 16 12C16 12.5523 15.5523 13 15 13H10C9.44772 13 9 12.5523 9 12C9 11.4477 9.44772 11 10 11H15Z" fill="#686583" style="fill-opacity:1;"/><path d="M15 7C15.5523 7 16 7.44772 16 8C16 8.55228 15.5523 9 15 9H10C9.44772 9 9 8.55228 9 8C9 7.44772 9.44772 7 10 7H15Z" fill="#686583" style="fill-opacity:1;"/><path d="M18 17V5C18 4.73478 17.8946 4.48051 17.707 4.29297C17.5195 4.10543 17.2652 4 17 4H4C3.44772 4 3 3.55228 3 3C3 2.44772 3.44772 2 4 2H17C17.7956 2 18.5585 2.3163 19.1211 2.87891C19.6837 3.44152 20 4.20435 20 5V17C20 17.5523 19.5523 18 19 18C18.4477 18 18 17.5523 18 17Z" fill="#686583" style="fill-opacity:1;"/><path d="M11 18V19C11 19.3444 10.937 19.6814 10.8242 20H20C20.2652 20 20.5195 19.8946 20.707 19.707C20.8946 19.5195 21 19.2652 21 19V18H11ZM4.99512 4.90137C4.97243 4.67237 4.87117 4.45711 4.70703 4.29297C4.54289 4.12883 4.32763 4.02757 4.09863 4.00488L4 4C3.73478 4 3.48051 4.10543 3.29297 4.29297C3.10543 4.48051 3 4.73478 3 5V7H5V5L4.99512 4.90137ZM7 19L7.00488 19.0986C7.02757 19.3276 7.12883 19.5429 7.29297 19.707C7.48051 19.8946 7.73478 20 8 20C8.26522 20 8.51949 19.8946 8.70703 19.707C8.89457 19.5195 9 19.2652 9 19V18C9 17.4696 9.21086 16.961 9.58594 16.5859C9.96101 16.2109 10.4696 16 11 16H21C21.5304 16 22.039 16.2109 22.4141 16.5859C22.7891 16.961 23 17.4696 23 18V19C23 19.7957 22.6837 20.5585 22.1211 21.1211C21.5585 21.6837 20.7957 22 20 22H8C7.20435 22 6.44152 21.6837 5.87891 21.1211C5.3163 20.5585 5 19.7956 5 19V9H3C2.46957 9 1.96101 8.78913 1.58594 8.41406C1.25765 8.08578 1.05515 7.65526 1.00977 7.19727L1 7V5C1 4.20435 1.3163 3.44152 1.87891 2.87891C2.44152 2.3163 3.20435 2 4 2L4.29688 2.01465C4.98351 2.08291 5.6289 2.38671 6.12109 2.87891C6.6837 3.44152 7 4.20435 7 5V19Z" fill="#686583" style="fill-opacity:1;"/></svg>