<svg width="24" height="24" viewBox="0 0 24 24" fill="none" xmlns="http://www.w3.org/2000/svg"><path d="M18 4C18 3.44772 17.5523 3 17 3H7C6.44772 3 6 3.44772 6 4V20C6 20.5523 6.44772 21 7 21H17C17.5523 21 18 20.5523 18 20V4ZM20 20C20 21.6569 18.6569 23 17 23H7C5.34315 23 4 21.6569 4 20V4C4 2.34315 5.34315 1 7 1H17C18.6569 1 20 2.34315 20 4V20Z" fill="CURRENT_COLOR" style="fill-opacity:1;"/><path d="M12.0098 17L12.1123 17.0049C12.6165 17.0561 13.0098 17.4822 13.0098 18C13.0098 18.5178 12.6165 18.9439 12.1123 18.9951L12.0098 19H12C11.4477 19 11 18.5523 11 18C11 17.4477 11.4477 17 12 17H12.0098Z" fill="CURRENT_COLOR" style="fill-opacity:1;"/></svg>