<svg class="w-6 h-6" width="24" height="24" viewBox="0 0 24 24" fill="none" xmlns="http://www.w3.org/2000/svg"><path d="M21 7C21 6.44772 20.5523 6 20 6H4C3.44772 6 3 6.44772 3 7V17C3 17.5523 3.44772 18 4 18H20C20.5523 18 21 17.5523 21 17V7ZM23 17C23 18.6569 21.6569 20 20 20H4C2.34315 20 1 18.6569 1 17V7C1 5.34315 2.34315 4 4 4H20C21.6569 4 23 5.34315 23 7V17Z" fill="#686583" style="fill-opacity:1;"/><path d="M22 9C22.5523 9 23 9.44772 23 10C23 10.5523 22.5523 11 22 11H2C1.44772 11 1 10.5523 1 10C1 9.44772 1.44772 9 2 9H22Z" fill="#686583" style="fill-opacity:1;"/></svg>