<svg class="w-6 h-6" width="24" height="24" viewBox="0 0 24 24" fill="none" xmlns="http://www.w3.org/2000/svg"><path d="M18 2C18.5523 2 19 2.44772 19 3C19 3.55228 18.5523 4 18 4H6C5.44772 4 5 3.55228 5 3C5 2.44772 5.44772 2 6 2H18Z" fill="#686583" style="fill-opacity:1;"/><path d="M18 7C18.5523 7 19 7.44772 19 8C19 8.55228 18.5523 9 18 9H6C5.44772 9 5 8.55228 5 8C5 7.44772 5.44772 7 6 7H18Z" fill="#686583" style="fill-opacity:1;"/><path d="M5.27147 12.3145C5.62628 11.9375 6.20512 11.8969 6.60741 12.2051L6.68553 12.2715L15.1855 20.2715L15.2558 20.3457C15.5881 20.7286 15.5834 21.3085 15.2285 21.6855C14.8737 22.0625 14.2949 22.1031 13.8926 21.7949L13.8144 21.7285L5.31444 13.7285L5.24413 13.6543C4.91189 13.2714 4.91662 12.6915 5.27147 12.3145Z" fill="#686583" style="fill-opacity:1;"/><path d="M9 12C9.55228 12 10 12.4477 10 13C10 13.5523 9.55228 14 9 14H6C5.44772 14 5 13.5523 5 13C5 12.4477 5.44772 12 6 12H9Z" fill="#686583" style="fill-opacity:1;"/><path d="M9 2C10.9381 2 12.4656 2.73701 13.498 3.89844C14.5139 5.04141 15 6.53709 15 8C15 9.46291 14.5139 10.9586 13.498 12.1016C12.4656 13.263 10.9381 14 9 14C8.44772 14 8 13.5523 8 13C8 12.4477 8.44772 12 9 12C10.3953 12 11.3686 11.487 12.0029 10.7734C12.6536 10.0415 13 9.03692 13 8C13 6.96308 12.6536 5.95853 12.0029 5.22656C11.3686 4.51305 10.3953 4 9 4C8.44772 4 8 3.55228 8 3C8 2.44772 8.44772 2 9 2Z" fill="#686583" style="fill-opacity:1;"/></svg>