<svg class="w-6 h-6" width="24" height="24" viewBox="0 0 24 24" fill="none" xmlns="http://www.w3.org/2000/svg"><path d="M6 21C6 19.8954 6.89543 19 8 19C9.10457 19 10 19.8954 10 21C10 22.1046 9.10457 23 8 23C6.89543 23 6 22.1046 6 21Z" fill="#686583" style="fill-opacity:1;"/><path d="M17 21C17 19.8954 17.8954 19 19 19C20.1046 19 21 19.8954 21 21C21 22.1046 20.1046 23 19 23C17.8954 23 17 22.1046 17 21Z" fill="#686583" style="fill-opacity:1;"/><path d="M4.05 1.04999L4.13789 1.05389C4.57147 1.09189 4.93498 1.4088 5.02754 1.841L5.92891 6.04999H22.09C22.3933 6.05 22.6805 6.18745 22.8703 6.42401C23.0601 6.66056 23.1323 6.97074 23.0666 7.26678L21.4162 14.6965L21.4152 14.6955C21.2683 15.362 20.8999 15.9589 20.3684 16.3869C19.903 16.7616 19.3377 16.9869 18.7463 17.0383L18.4914 17.05H8.71016V17.049C8.02024 17.0593 7.34765 16.8325 6.80586 16.4045C6.32671 16.0259 5.97624 15.5116 5.79805 14.9318L5.73262 14.6799L4.14864 7.28729C4.14354 7.26636 4.13872 7.24525 4.13496 7.22382L3.24141 3.04999H2.05C1.49772 3.04999 1.05 2.60227 1.05 2.04999C1.05 1.4977 1.49772 1.04999 2.05 1.04999H4.05ZM7.6877 14.2599L7.70918 14.3439C7.76854 14.5374 7.88626 14.7089 8.0461 14.8351C8.22855 14.9792 8.45529 15.0551 8.6877 15.05H18.4885C18.7158 15.0496 18.9363 14.9718 19.1135 14.8293C19.2908 14.6866 19.4142 14.4871 19.4631 14.2648L19.4641 14.2629L20.843 8.04999H6.35762L7.6877 14.2599Z" fill="#686583" style="fill-opacity:1;"/></svg>