<svg class="w-6 h-6" width="24" height="24" viewBox="0 0 24 24" fill="none" xmlns="http://www.w3.org/2000/svg"><path d="M2 19V15C2 14.4477 2.44772 14 3 14C3.55228 14 4 14.4477 4 15V19L4.00488 19.0986C4.02757 19.3276 4.12883 19.5429 4.29297 19.707C4.48051 19.8946 4.73478 20 5 20H19C19.2652 20 19.5195 19.8946 19.707 19.707C19.8946 19.5195 20 19.2652 20 19V15C20 14.4477 20.4477 14 21 14C21.5523 14 22 14.4477 22 15V19C22 19.7957 21.6837 20.5585 21.1211 21.1211C20.5585 21.6837 19.7957 22 19 22H5C4.20435 22 3.44152 21.6837 2.87891 21.1211C2.38671 20.6289 2.08291 19.9835 2.01465 19.2969L2 19Z" fill="#686583" style="fill-opacity:1;"/><path d="M11.3691 2.22461C11.7619 1.90426 12.3409 1.92685 12.707 2.29297L17.707 7.29297L17.7754 7.36914C18.0957 7.76191 18.0731 8.34092 17.707 8.70703C17.3409 9.07315 16.7619 9.09574 16.3691 8.77539L16.293 8.70703L12 4.41406L7.70702 8.70703C7.31649 9.09756 6.68348 9.09756 6.29295 8.70703C5.90243 8.31651 5.90243 7.68349 6.29295 7.29297L11.293 2.29297L11.3691 2.22461Z" fill="#686583" style="fill-opacity:1;"/><path d="M11 15V3C11 2.44772 11.4477 2 12 2C12.5523 2 13 2.44772 13 3V15C13 15.5523 12.5523 16 12 16C11.4477 16 11 15.5523 11 15Z" fill="#686583" style="fill-opacity:1;"/></svg>